End of Watch (2012) 1080p BRRip HE-AACv2 HQ Subs
.
[IMG]http://i.imgur.com/leUko.jpg[/IMG]
.
R  109 min  -  Crime | Drama | Thriller  -   18 October 2012 (Netherlands)
. 
http://www.imdb.com/title/tt1855199/
. 
http://www.moviemeter.nl/film/79377
.
PLOT
.
Two young officers are marked for death after confiscating a small cache
of money and firearms from the members of a notorious cartel,
during a routine traffic stop. 
.
HQ Subtitles Dutch White and Yellow
NL vertaling: iSubit
.
Screens
.
Format                                   : MPEG-4
Format profile                           : Base Media / Version 2
Codec ID                                 : mp42
File size                                : 1.60 GiB
Duration                                 : 1h 48mn
Overall bit rate mode                    : Variable
Overall bit rate                         : 2 110 Kbps
Movie name                               : End of Watch 2012
Writing application                      : TMPGEnc Video Mastering Works 5 Version. 5.3.1.85
Copyright                                : NLU002
Comment                                  : Enjoy the Movie

ID                                       : 2
Format                                   : AVC
Format/Info                              : Advanced Video Codec
Format profile                           : High@L4.1
Format settings, CABAC                   : Yes
Format settings, ReFrames                : 4 frames
Codec ID                                 : avc1
Codec ID/Info                            : Advanced Video Coding
Duration                                 : 1h 48mn
Bit rate mode                            : Variable
Bit rate                                 : 1 965 Kbps
Nominal bit rate                         : 2 000 Mbps
Maximum bit rate                         : 2 000 Kbps
Width                                    : 1 918 pixels
Height                                   : 1 080 pixels
Display aspect ratio                     : 16:9
Frame rate mode                          : Constant
Frame rate                               : 23.976 fps
Standard                                 : NTSC
Color space                              : YUV
Chroma subsampling                       : 4:2:0
Bit depth                                : 8 bits
Scan type                                : Progressive
Bits/(Pixel*Frame)                       : 0.040
Stream size                              : 1.49 GiB (93%)
Writing library                          : x264 core 124
Encoding settings                        : cabac=1 / ref=4 / deblock=1:0:0 / analyse=0x3:0x113 / me=hex / subme=7 / psy=1 / psy_rd=1.00:0.00 / mixed_ref=1 / me_range=16 / chroma_me=1 / trellis=1 / 8x8dct=1 / cqm=2 / deadzone=21,11 / fast_pskip=1 / chroma_qp_offset=-4 / threads=3 / sliced_threads=0 / slices=1 / nr=0 / decimate=1 / interlaced=0 / bluray_compat=0 / constrained_intra=0 / bframes=3 / b_pyramid=0 / b_adapt=1 / b_bias=0 / direct=1 / weightb=1 / open_gop=0 / weightp=1 / keyint=250 / keyint_min=23 / scenecut=40 / intra_refresh=0 / rc_lookahead=40 / rc=2pass / mbtree=1 / bitrate=2000000 / ratetol=1.0 / qcomp=0.60 / qpmin=5 / qpmax=69 / qpstep=4 / cplxblur=20.0 / qblur=0.5 / vbv_maxrate=2000000 / vbv_bufsize=2000000 / nal_hrd=vbr / ip_ratio=1.40 / aq=1:1.00
Color primaries                          : BT.709
Transfer characteristics                 : BT.709
Matrix coefficients                      : BT.709

ID                                       : 1
Format                                   : AAC
Format/Info                              : Advanced Audio Codec
Format profile                           : HE-AACv2 / HE-AAC / LC
Codec ID                                 : 40
Duration                                 : 1h 48mn
Bit rate mode                            : Variable
Bit rate                                 : 144 Kbps
Channel(s)                               : 2 channels / 1 channel / 1 channel
Channel positions                        : Front: L R / Front: C / Front: C
Sampling rate                            : 48.0 KHz / 48.0 KHz / 24.0 KHz
Compression mode                         : Lossy
Delay relative to video                  : 42ms
Stream size                              : 111 MiB (7%)

Text #0           : VobSub HQ Wit
Language          : nl
Text #1           : VobSub HQ Geel
Language          : nl
Text #2           : UTF-8 Normaal SRT
Language          : nl
.
Enjoy Small size high Quality